<svg width="27" height="35" viewBox="0 0 27 35" fill="none" xmlns="http://www.w3.org/2000/svg">
<g id="map-pin">
<path id="Vector" d="M23.625 14.5833C23.625 24.7916 13.5 33.5416 13.5 33.5416C13.5 33.5416 3.375 24.7916 3.375 14.5833C3.375 11.1023 4.44174 7.76389 6.34054 5.30247C8.23935 2.84106 10.8147 1.45825 13.5 1.45825C16.1853 1.45825 18.7606 2.84106 20.6595 5.30247C22.5583 7.76389 23.625 11.1023 23.625 14.5833Z" stroke="black" stroke-width="2" stroke-linecap="round" stroke-linejoin="round"/>
<path id="Vector_2" d="M13.5 18.9583C15.364 18.9583 16.875 16.9995 16.875 14.5833C16.875 12.167 15.364 10.2083 13.5 10.2083C11.636 10.2083 10.125 12.167 10.125 14.5833C10.125 16.9995 11.636 18.9583 13.5 18.9583Z" stroke="black" stroke-width="2" stroke-linecap="round" stroke-linejoin="round"/>
</g>
</svg>
