<svg width="35" height="35" viewBox="0 0 35 35" fill="none" xmlns="http://www.w3.org/2000/svg">
<g id="shopping-cart">
<path id="Vector" d="M13.1248 32.0834C13.9303 32.0834 14.5832 31.4305 14.5832 30.6251C14.5832 29.8197 13.9303 29.1667 13.1248 29.1667C12.3194 29.1667 11.6665 29.8197 11.6665 30.6251C11.6665 31.4305 12.3194 32.0834 13.1248 32.0834Z" stroke="black" stroke-width="3" stroke-linecap="round" stroke-linejoin="round"/>
<path id="Vector_2" d="M29.1668 32.0834C29.9722 32.0834 30.6252 31.4305 30.6252 30.6251C30.6252 29.8197 29.9722 29.1667 29.1668 29.1667C28.3614 29.1667 27.7085 29.8197 27.7085 30.6251C27.7085 31.4305 28.3614 32.0834 29.1668 32.0834Z" stroke="black" stroke-width="3" stroke-linecap="round" stroke-linejoin="round"/>
<path id="Vector_3" d="M1.4585 1.45825H7.29183L11.2002 20.9853C11.3335 21.6567 11.6988 22.2599 12.232 22.6891C12.7652 23.1183 13.4324 23.3464 14.1168 23.3333H28.2918C28.9762 23.3464 29.6434 23.1183 30.1767 22.6891C30.7099 22.2599 31.0751 21.6567 31.2085 20.9853L33.5418 8.74992H8.75016" stroke="black" stroke-width="2" stroke-linecap="round" stroke-linejoin="round"/>
</g>
</svg>
